<?xml version="1.0" encoding="utf-8" standalone="yes"?>
<!DOCTYPE svg PUBLIC "-//W3C//DTD SVG 1.1//EN" "http://www.w3.org/Graphics/SVG/1.1/DTD/svg11.dtd">
<svg width="721" height="541" viewBox="0 0 721 541" style="fill:none;stroke:none;fill-rule:evenodd;clip-rule:evenodd;stroke-linecap:round;stroke-linejoin:round;stroke-miterlimit:1.5;" version="1.1" xmlns="http://www.w3.org/2000/svg" xmlns:xlink="http://www.w3.org/1999/xlink"><style class="text-font-style fontImports" data-font-family="Shantell Sans">@import url('https://fonts.googleapis.com/css2?family=Shantell+Sans:wght@300..800&amp;display=block');</style><g id="items" style="isolation: isolate"><g id="blend" style="mix-blend-mode: normal"><g id="g-root-sy_-1_cu_18ntkyta1s2rq-fill" data-item-order="-298692" transform="translate(405, 141.435546875)"><g id="sy_-1_cu_18ntkyta1s2rq-fill" stroke="none" fill="#f99539"><g><path d="M 19.636993 15.377807C 24.02002 15.377807 28.746002 13.978897 31.757019 11.192505C 32.153992 10.814102 32.531982 10.424301 32.890015 10C 33.238007 10.424301 33.61499 10.814102 34.02301 11.192505C 37.033997 13.990295 41.436005 15.377807 45.807983 15.377807C 50.181 15.377807 54.583008 13.978897 57.593994 11.192505C 57.990997 10.814102 58.369019 10.424301 58.71698 10C 59.065002 10.424301 59.442017 10.814102 59.850006 11.192505C 62.860992 13.990295 67.252991 15.377807 71.63501 15.377807C 76.018005 15.377807 80.410004 13.978897 83.421021 11.192505C 83.817993 10.814102 84.195984 10.424301 84.544006 10C 84.891998 10.424301 85.268982 10.814102 85.677002 11.192505C 88.687988 13.990295 93.089996 15.377807 97.462006 15.377807C 101.835022 15.377807 106.237 13.978897 109.247986 11.192505C 109.64502 10.814102 110.02301 10.424301 110.380981 10C 110.729004 10.424301 111.106018 10.814102 111.503998 11.192505C 114.515015 13.990295 118.916992 15.377807 123.289001 15.377807C 127.661987 15.377807 132.063965 13.978897 135.075012 11.192505C 135.471985 10.814102 135.849976 10.424301 136.208008 10C 136.554993 10.424301 136.932983 10.814102 137.330994 11.192505C 140.34198 13.990295 144.744019 15.377807 149.115967 15.377807C 153.489014 15.377807 157.890991 13.978897 160.901978 11.192505C 161.299011 10.814102 161.677002 10.424301 162.034668 10C 162.382507 10.424301 162.760132 10.814102 163.157593 11.192505C 166.168579 13.990295 170.570801 15.377807 174.943176 15.377807C 179.315613 15.377807 183.717773 13.978897 186.728821 11.192505C 187.126282 10.814102 187.503906 10.424301 187.861572 10C 188.209412 10.424301 188.587097 10.814102 188.984619 11.192505C 191.995605 13.990295 196.397827 15.377807 200.770203 15.377807C 205.142578 15.377807 209.5448 13.978897 212.555786 11.192505C 212.953308 10.814102 213.330872 10.424301 213.688721 10C 214.036499 10.424301 214.414124 10.814102 214.821472 11.192505C 217.83252 13.990295 222.23468 15.377807 226.607117 15.377807C 230.979492 15.377807 235.381775 13.978897 238.392822 11.192505C 238.790283 10.814102 239.167908 10.424301 239.525574 10C 239.873413 10.424301 240.250977 10.814102 240.658386 11.192505C 243.669373 13.990295 248.349121 15.3862 252.40509 15.3862L 262 28.564392L 262 60.564514L 244 96.564514L 244 144.565002L 226 180.563995L 226 216.563995L 178.287415 306.490967L 166.287415 306.490967L 136 350.565002L 118 320.563965L 106 320.563965L 70 260.563995L 70 228.563995L 46 192.565002L 46 156.563995L 34 137.565002L 34 102.564697L 10 60.564697L 10 28.064392L 19.02002 15.377807L 19.636993 15.377807Z"></path></g></g></g><g id="g-root-sy_-1_cu_1_m7cy1xa1tgjz-fill" data-item-order="-298690" transform="translate(414.04864501953125, 38)"><g id="sy_-1_cu_1_m7cy1xa1tgjz-fill" stroke="none" fill="#f99539"><g><path d="M 10 118.821991C 14.765991 118.963989 19.752014 117.416 22.763001 114.630005C 23.159973 114.251999 23.537994 113.862 23.895996 113.438004C 24.242981 113.862 24.621002 114.251999 25.028015 114.630005C 28.039001 117.428009 32.442017 118.815002 36.813995 118.815002C 41.185974 118.815002 45.588989 117.416 48.599976 114.630005C 48.997009 114.251999 49.375 113.862 49.722992 113.438004C 50.070007 113.862 50.447998 114.251999 50.85498 114.630005C 53.865997 117.428009 58.259003 118.815002 62.640991 118.815002C 67.02301 118.815002 71.416016 117.416 74.427002 114.630005C 74.823975 114.251999 75.201996 113.862 75.549988 113.438004C 75.897003 113.862 76.274994 114.251999 76.682007 114.630005C 79.692993 117.428009 84.096008 118.815002 88.468018 118.815002C 92.839996 118.815002 97.242981 117.416 100.253998 114.630005C 100.651001 114.251999 101.028992 113.862 101.385986 113.438004C 101.734009 113.862 102.112 114.251999 102.509003 114.630005C 105.519989 117.428009 109.922974 118.815002 114.294983 118.815002C 118.666992 118.815002 123.070007 117.416 126.080994 114.630005C 126.477966 114.251999 126.856018 113.862 127.213013 113.438004C 127.560974 113.862 127.939026 114.251999 128.335999 114.630005C 131.346985 117.428009 135.75 118.815002 140.122009 118.815002C 144.494385 118.815002 148.896606 117.416 151.907593 114.630005C 152.305115 114.251999 152.6828 113.862 153.040466 113.438004C 153.388306 113.862 153.765869 114.251999 154.163391 114.630005C 157.174377 117.428009 161.576599 118.815002 165.948975 118.815002C 170.321411 118.815002 174.723572 117.416 177.734619 114.630005C 178.13208 114.251999 178.509827 113.862 178.867493 113.438004C 179.215271 113.862 179.592896 114.251999 179.990418 114.630005C 183.001404 117.428009 187.403626 118.815002 191.776001 118.815002C 196.148376 118.815002 200.55072 117.416 203.561584 114.630005C 203.959106 114.251999 204.336792 113.862 204.694519 113.438004C 205.042297 113.862 205.419922 114.251999 205.827393 114.630005C 208.838318 117.428009 213.240601 118.815002 217.612976 118.815002C 221.985413 118.815002 226.387573 117.416 229.398621 114.630005C 229.796082 114.251999 230.173706 113.862 230.531372 113.438004C 230.879211 113.862 231.256897 114.251999 231.664307 114.630005C 234.528992 117.291 239.125183 118.820007 243.382996 118.820007L 209.000183 74L 197.000183 87L 160.000183 38L 149.000183 38L 127 10.000015L 87 61L 79 52L 43 100L 32 100L 28 95L 10 118.821991Z"></path></g></g></g><g id="g-root-sy_-1_cu_2_dbpxt1a1ti4g-fill" data-item-order="-298687" transform="translate(14, 141.435546875)"></g><g id="g-root-sy_-1_line_vwita1tgjl-fill" data-item-order="-298683" transform="translate(362, 61.99609375)"></g><g id="g-root-sy_1_line_1q6cy91a1th56-fill" data-item-order="-298677" transform="translate(362, 229.99609375)"></g><g id="g-root-sy_2_line_1q6cy91a1th57-fill" data-item-order="-298671" transform="translate(362, 290.0001220703125)"></g><g id="g-root-sy_3_line_1lqjg4la1thxg-fill" data-item-order="-298665" transform="translate(362, 349.99609375)"></g><g id="g-root-sy_4_line_1cuwfvpa1tiq5-fill" data-item-order="-298659" transform="translate(362, 409.99609375)"></g><g id="g-root-ic_2_1d1rqzpa1gu88-fill" data-item-order="-2304" transform="translate(302, 38)"><g id="ic_2_1d1rqzpa1gu88-fill" stroke="none" fill="#484848"><g><path d="M 35.559998 32.760002C 35.182705 32.282524 34.608543 32.002808 34 32L 23 32C 21.895432 32 21 32.895432 21 34C 21 35.104568 21.895432 36 23 36L 33 36L 38.799999 43.240002C 39.177296 43.717476 39.751457 43.997196 40.360001 44C 40.811127 43.997383 41.248123 43.842319 41.599998 43.560001C 42.457817 42.873093 42.600716 41.622742 41.919998 40.760002ZM 12.52 28.860001C 12.725346 28.934692 12.941544 28.975229 13.16 28.98C 14.025148 28.979362 14.791804 28.422527 15.059999 27.6C 15.880217 25.18001 17.156565 22.93961 18.82 21C 19.537762 20.160507 19.439178 18.898127 18.599796 18.180237C 17.760418 17.462345 16.49802 17.56073 15.78 18.4C 13.779288 20.752325 12.251349 23.468658 11.28 26.4C 10.972687 27.419338 11.517788 28.50075 12.52 28.860001ZM 24.6 16.119999C 24.891855 16.139191 25.184547 16.098351 25.460001 16C 27.762329 14.867392 30.261087 14.188381 32.82 14C 33.924568 13.939249 34.770752 12.99457 34.709999 11.89C 34.649246 10.785431 33.704567 9.939249 32.599998 10C 29.532568 10.203875 26.532228 10.991294 23.76 12.32C 22.926006 12.723632 22.478434 13.647236 22.678417 14.551929C 22.878403 15.456621 23.67358 16.105511 24.6 16.119999ZM 41.080002 15.32C 43.466751 16.233135 45.658779 17.590429 47.540001 19.32C 47.911896 19.658054 48.397434 19.8437 48.900002 19.84C 49.45433 19.838217 49.983055 19.606445 50.360001 19.200001C 51.108482 18.392685 51.063786 17.132269 50.259998 16.380001C 48.004086 14.298485 45.36982 12.669042 42.5 11.58C 41.467171 11.187655 40.311852 11.706984 39.919685 12.73988C 39.527515 13.772776 40.047039 14.928006 41.080002 15.32ZM 56 24.560001C 55.568588 23.544434 54.39621 23.070114 53.380001 23.5C 52.364433 23.93141 51.890114 25.103788 52.32 26.120001C 53.329876 28.473059 53.873264 30.999815 53.920002 33.559998C 53.919998 34.66457 54.81543 35.559998 55.919998 35.559998C 57.02457 35.559998 57.919998 34.66457 57.919998 33.559998C 57.870079 30.463833 57.217949 27.406988 56 24.560001ZM 55.02 40.700001C 54.003807 40.285728 52.843601 40.767662 52.419998 41.779999C 51.727898 43.434742 50.805447 44.983383 49.680004 46.380001C 48.066505 45.633286 46.15379 46.041172 44.985283 47.381149C 43.816772 48.721127 43.672955 50.671551 44.632278 52.16843C 45.591606 53.665306 47.423801 54.349335 49.129375 53.847359C 50.834946 53.345387 52.00449 51.777901 52 50C 52 50 52 49.900002 52 49.84C 53.72578 47.906567 55.124191 45.704243 56.139999 43.32C 56.343052 42.824402 56.338848 42.26807 56.128326 41.7756C 55.917805 41.283131 55.518559 40.895672 55.02 40.700001ZM 39.459999 53.240002C 33.42868 54.951565 26.943789 53.735882 21.941919 49.955994C 16.940052 46.176105 14.000088 40.26947 14 34C 14 32.895432 13.104569 32 12 32C 10.895431 32 10 32.895432 10 34C 9.99741 41.522682 13.522191 48.611351 19.521898 53.149441C 25.521606 57.687531 33.30201 59.149933 40.540001 57.100002C 41.605911 56.801769 42.228237 55.695911 41.93 54.630001C 41.631767 53.564095 40.525909 52.941769 39.459999 53.240002Z"></path></g></g></g><g id="g-root-ic_door_1d2e4x1a20hdy-fill" data-item-order="-2304" transform="translate(302, 206)"><g id="ic_door_1d2e4x1a20hdy-fill" stroke="none" fill="#484848"><g><path d="M 14 10C 11.790861 10 10 11.790861 10 14L 10 54C 10 56.209141 11.790861 58 14 58L 34.82 58C 34.085621 56.71553 33.802567 55.222115 34.015999 53.758003C 34.091469 53.236092 34.250153 52.72966 34.486 52.258003L 37.139999 46.133999C 37.554966 45.060654 38.276169 44.132893 39.214001 43.466C 39.096703 42.994999 39.03759 42.511391 39.038002 42.026001L 39.038002 33L 39 33C 35.668751 32.994186 32.613171 31.148777 31.05744 28.20311C 29.501709 25.257441 29.700308 21.693363 31.573673 18.938772C 33.447037 16.184183 36.688728 14.689673 40 15.054L 40 14C 40 11.790861 38.209137 10 36 10L 14 10ZM 21 33.5C 21 34.880714 19.880711 36 18.5 36C 17.119289 36 16 34.880714 16 33.5C 16 32.119289 17.119289 31 18.5 31C 19.880711 31 21 32.119289 21 33.5ZM 39 30C 42.313709 30 45 27.313709 45 24C 45 20.686291 42.313709 18 39 18C 35.686295 18 33 20.686291 33 24C 33 27.313709 35.686295 30 39 30ZM 47.09 49.813999C 47.09 50.445999 47.299999 50.868 47.722 51.287998L 51.931999 56.762001L 52.352001 57.181999C 53.403999 58.234001 55.088001 58.234001 56.352001 57.391998C 57.826 56.34 58.035999 54.445999 56.984001 52.972L 53.403999 48.341999L 53.403999 41.606003C 53.403999 41.186001 53.194 40.552002 52.984001 40.132L 47.931999 29.818001C 47.722 29.186001 46.248001 27.502001 44.144001 28.134001C 42.889404 28.571516 42.045994 29.751329 42.038002 31.080002L 42.037998 42.026001C 42.037998 42.360001 42.098 42.686001 42.202 42.993999C 42.610001 44.014 43.644001 44.798 44.759998 44.798C 46.198002 44.798 47.5 43.495998 47.5 42.057999L 47.5 39.928001C 47.5 39.237644 48.059643 38.678001 48.75 38.678001C 49.440357 38.678001 50 39.237644 50 39.928001L 50 42.057999C 50 44.877998 47.580002 47.298 44.759998 47.298C 43.403484 47.28545 42.105133 46.745308 41.139999 45.792C 40.586349 46.123192 40.16124 46.632195 39.934002 47.236L 37.195999 53.549999C 37.195999 53.549999 37.035999 53.824001 36.986 54.181999C 36.776001 55.653999 37.405998 57.127998 38.879997 57.759998C 40.563999 58.391998 42.459999 57.759998 43.09 56.076L 45.405998 50.604L 47.09 49.549999L 47.09 49.813999Z"></path></g></g></g><g id="g-root-ic_ques_hu1c9xa1z37p-fill" data-item-order="-2304" transform="translate(302, 266)"><g id="ic_ques_hu1c9xa1z37p-fill" stroke="none" fill="#484848"><g><path d="M 29.139999 43L 15 43C 14.447716 43 14 42.552284 14 42L 14 25C 14 24.447716 14.447716 24 15 24L 42 24C 42.552284 24 43 24.447716 43 25L 43 29.139999C 44.326801 28.953388 45.673195 28.953388 46.999996 29.139999L 47 16C 47 14.895431 46.104568 14 45 14L 40 14C 39.723858 14 39.5 13.776142 39.5 13.5L 39.5 11.5C 39.5 10.671573 38.82843 10 38 10C 37.171574 10 36.5 10.671573 36.5 11.5L 36.5 19C 36.5 19.828426 35.82843 20.5 35 20.5C 34.171574 20.5 33.5 19.828426 33.5 19L 33.5 15C 33.5 14.447716 33.052284 14 32.5 14L 24 14C 23.723858 14 23.5 13.776142 23.5 13.5L 23.5 11.5C 23.5 10.671573 22.828426 10 22 10C 21.171574 10 20.5 10.671573 20.5 11.5L 20.5 19C 20.5 19.828426 19.828426 20.5 19 20.5C 18.171574 20.5 17.5 19.828426 17.5 19L 17.5 15C 17.5 14.447716 17.052284 14 16.5 14L 12 14C 10.895431 14 10 14.895431 10 16L 10 43C 10 45.209141 11.790861 47 14 47L 29.139999 47C 28.953388 45.673195 28.953388 44.326801 29.139999 42.999996ZM 45 32C 37.820297 32 32 37.820297 32 45C 32 52.179703 37.820297 58 45 58C 52.179703 58 58 52.179703 58 45C 57.988987 37.824867 52.175137 32.011013 45 32ZM 45 55C 43.895432 55 43 54.104568 43 53C 43 51.895432 43.895432 51 45 51C 46.104568 51 47 51.895432 47 53C 47 54.104568 46.104568 55 45 55ZM 46.5 46.779999L 46.5 47.5C 46.5 48.328426 45.828426 49 45 49C 44.171574 49 43.5 48.328426 43.5 47.5L 43.5 46.400002C 43.504498 45.215588 44.339508 44.196877 45.5 43.959999C 46.664993 43.717789 47.442623 42.613747 47.278313 41.435242C 47.114006 40.256737 46.064041 39.407501 44.877224 39.493183C 43.690411 39.578865 42.773323 40.570114 42.779999 41.760002C 42.769054 42.591652 42.091724 43.260071 41.260002 43.259998C 40.439392 43.249058 39.77993 42.580681 39.779999 41.760002C 39.779629 39.062042 41.827911 36.804771 44.513222 36.543846C 47.198532 36.282917 49.643063 38.103622 50.162113 40.751183C 50.68116 43.398739 49.105053 46.007683 46.519997 46.779999Z"></path></g></g></g><g id="g-root-ic_moni_18gyd0la1w9ac-fill" data-item-order="-2304" transform="translate(302, 326)"><g id="ic_moni_18gyd0la1w9ac-fill" stroke="none" fill="#484848"><g><path d="M 48.16 48.799999L 37.260002 48.799999C 36.884857 48.174957 36.595589 47.502247 36.400002 46.799999L 41.059998 46.799999C 42.996227 46.788998 44.560032 45.216259 44.560001 43.279999L 44.560001 35.279999C 44.560032 33.343742 42.996227 31.771002 41.059998 31.76L 26.940001 31.76C 24.995956 31.76 23.42 33.335957 23.42 35.279999L 23.42 43.279999C 23.42 45.224041 24.995956 46.799999 26.940001 46.799999L 31.6 46.799999C 31.404408 47.502247 31.115143 48.174957 30.74 48.799999L 20.74 48.799999C 19.911573 48.800003 19.240002 49.471573 19.240002 50.300003C 19.240002 51.128429 19.911573 51.800003 20.740002 51.800003L 21.200001 51.799999L 21.200001 56.259998C 21.200001 57.088428 21.871574 57.760002 22.700001 57.760002C 23.528427 57.760002 24.200001 57.088428 24.200001 56.260002L 24.200001 51.799999L 44.599998 51.799999L 44.599998 56.259998C 44.600002 57.088428 45.271572 57.760002 46.100002 57.760002C 46.928429 57.760002 47.600002 57.088428 47.600002 56.260002L 47.599998 51.799999L 48.16 51.799999C 48.98843 51.800003 49.66 51.128429 49.66 50.300003C 49.66 49.471573 48.98843 48.800003 48.16 48.800003ZM 26.42 43.299999L 26.42 35.299999C 26.419998 35.01281 26.652811 34.779999 26.939999 34.779999L 41.059998 34.779999C 41.196148 34.779892 41.326454 34.835304 41.420815 34.933445C 41.515182 35.031586 41.565445 35.163963 41.559998 35.299999L 41.559998 43.299999C 41.560204 43.579552 41.339348 43.809246 41.059998 43.82L 26.940001 43.82C 26.652811 43.819996 26.419998 43.587185 26.419998 43.299999ZM 56.439999 25.74L 50 25.74C 49.738705 25.236439 49.530903 24.706879 49.380001 24.16L 53.400002 24.16C 55.34404 24.16 56.919998 22.584042 56.919998 20.639999L 56.919998 13.74C 56.920017 12.808267 56.548523 11.914984 55.887814 11.258028C 55.227104 10.601073 54.331718 10.234675 53.400002 10.24L 41.059998 10.24C 40.128281 10.234675 39.232899 10.601073 38.572189 11.258028C 37.91148 11.914984 37.539986 12.808267 37.540001 13.74L 37.540001 20.639999C 37.540001 22.584042 39.115959 24.16 41.059998 24.16L 45.18 24.16C 45.029095 24.706879 44.821293 25.236439 44.560001 25.74L 22.439999 25.74C 22.171955 25.237186 21.957447 24.707615 21.799999 24.16L 26 24.16C 27.92057 24.127258 29.460279 22.56085 29.459999 20.639999L 29.459999 13.74C 29.460127 11.822517 27.917358 10.261914 26 10.24L 13.58 10.24C 12.63796 10.218462 11.72703 10.577681 11.053247 11.236407C 10.379464 11.895133 9.999754 12.797714 10 13.74L 10 20.639999C 9.999863 21.584051 10.378943 22.48859 11.052106 23.150471C 11.725268 23.812351 12.636086 24.17609 13.58 24.16L 17.700001 24.16C 17.55781 24.709743 17.34963 25.240265 17.08 25.74L 11.82 25.74C 10.991573 25.740002 10.32 26.411573 10.32 27.24C 10.32 28.068428 10.991573 28.74 11.82 28.74L 12.16 28.74L 12.16 36.239998C 12.16 37.068428 12.831573 37.740002 13.66 37.740002C 14.488427 37.740002 15.16 37.068428 15.16 36.240002L 15.16 28.74L 52.66 28.74L 52.66 36.239998C 52.66 37.068428 53.331573 37.740002 54.16 37.740002C 54.98843 37.740002 55.66 37.068428 55.66 36.240002L 55.66 28.74L 56.439999 28.74C 57.268429 28.74 57.940002 28.068428 57.940002 27.24C 57.940002 26.411573 57.268429 25.740002 56.440002 25.740002ZM 13.58 21.16C 13.292811 21.16 13.059999 20.927187 13.059999 20.639999L 13.059999 13.74C 13.070752 13.460651 13.300445 13.239793 13.58 13.24L 26 13.24C 26.279554 13.239793 26.509247 13.460651 26.519999 13.74L 26.52 20.639999C 26.519999 20.927187 26.287188 21.16 26 21.16ZM 41.059998 21.16C 40.772812 21.16 40.539997 20.927187 40.539997 20.639999L 40.540001 13.74C 40.53989 13.603853 40.595306 13.473548 40.693443 13.379183C 40.791588 13.284819 40.923962 13.234554 41.059998 13.24L 53.400002 13.24C 53.536037 13.234554 53.668415 13.284819 53.766556 13.379183C 53.864693 13.473548 53.920109 13.603853 53.919998 13.74L 53.919998 20.639999C 53.919998 20.927187 53.687183 21.16 53.399998 21.16Z"></path></g></g></g><g id="g-root-ic_remo_v64bqda1tgxv-fill" data-item-order="-2304" transform="translate(302, 386)"><g id="ic_remo_v64bqda1tgxv-fill" stroke="none" fill="#484848"><g><path d="M 45 32C 37.820297 32 32 37.820297 32 45C 32 52.179703 37.820297 58 45 58C 52.179703 58 58 52.179703 58 45C 57.988987 37.824867 52.175137 32.011013 45 32ZM 50.299999 50.299999C 49.714367 50.884907 48.765636 50.884907 48.18 50.300003L 45.360001 47.48C 45.265759 47.382225 45.135799 47.326988 45 47.326988C 44.864201 47.326988 44.734241 47.382225 44.639999 47.48L 41.82 50.299999C 41.228981 50.850719 40.307983 50.834469 39.736755 50.263245C 39.165531 49.69202 39.149284 48.771019 39.700001 48.18L 42.52 45.360001C 42.617775 45.265759 42.673012 45.135799 42.673012 45C 42.673012 44.864201 42.617775 44.734241 42.52 44.639999L 39.700001 41.82C 39.298695 41.44606 39.133503 40.882889 39.26923 40.351425C 39.404961 39.819958 39.819958 39.404961 40.351425 39.26923C 40.882889 39.133503 41.44606 39.298695 41.82 39.700001L 44.639999 42.52C 44.734241 42.617775 44.864201 42.673012 45 42.673012C 45.135799 42.673012 45.265759 42.617775 45.360001 42.52L 48.18 39.700001C 48.771019 39.149284 49.69202 39.165531 50.263245 39.736755C 50.834469 40.307983 50.850719 41.228981 50.300003 41.82L 47.48 44.639999C 47.382225 44.734241 47.326988 44.864201 47.326988 45C 47.326988 45.135799 47.382225 45.265759 47.48 45.360001L 50.299999 48.18C 50.884907 48.765636 50.884907 49.714367 50.300003 50.300003ZM 22 25.5C 21.171574 25.5 20.5 26.171574 20.5 27C 20.5 27.828428 21.171574 28.5 22 28.5L 34 28.5C 34.82843 28.5 35.5 27.828428 35.5 27C 35.5 26.171574 34.82843 25.5 34 25.5ZM 28.799999 42.5C 29.033869 42.495361 29.233263 42.329197 29.280001 42.099998C 29.393927 41.423111 29.554306 40.754864 29.76 40.099998C 29.76 39.879997 29.76 39.419998 29.1 39.419998L 22 39.419998C 21.171574 39.419998 20.5 40.091576 20.5 40.919998C 20.5 41.748428 21.171574 42.420002 22 42.420002ZM 29.379999 48.380001C 29.319418 48.162586 29.125509 48.009075 28.9 47.999996L 17 48C 16.447716 48 16 47.552284 16 47L 16 21C 16 20.447716 16.447716 20 17 20L 39 20C 39.552284 20 40 20.447716 40 21L 40 29.16C 39.995178 29.311115 40.061836 29.455671 40.179901 29.550121C 40.297962 29.644571 40.453625 29.677874 40.599998 29.639999C 42.232925 29.343603 43.882832 29.149889 45.540001 29.060001C 45.800411 29.039101 46.000835 28.821247 46 28.559999L 46 17C 46 15.343145 44.656857 14 43 14L 35 14C 34.829994 13.990686 34.674335 13.901739 34.580002 13.76C 33.206059 11.431417 30.703703 10.002421 28 10.002421C 25.296297 10.002421 22.793941 11.431417 21.42 13.76C 21.325665 13.901739 21.170008 13.990686 21 14L 13 14C 11.343145 14 10 15.343145 10 17L 10 51C 10 52.656857 11.343145 54 13 54L 30.879999 54C 31.059443 53.997467 31.223766 53.898964 31.310568 53.741894C 31.397371 53.58482 31.393337 53.393276 31.299999 53.240002C 30.386757 51.741734 29.737335 50.097889 29.380001 48.380001ZM 34.48 32.959999C 34.66 32.799999 34.48 32.5 34 32.5L 22 32.5C 21.171574 32.5 20.5 33.171574 20.5 34C 20.5 34.82843 21.171574 35.5 22 35.5L 32 35.5C 32.149563 35.491188 32.288059 35.418297 32.379997 35.299999C 33.007351 34.457733 33.710266 33.674484 34.480003 32.959999Z"></path></g></g></g><g id="g-root-tx_desperdi_18gyd0la1tiiq-fill" data-item-order="0" transform="translate(62, 50)"><g id="tx_desperdi_18gyd0la1tiiq-fill" stroke="none" fill="#484848"><g><text style="font: 20px &quot;Shantell Sans&quot;, cursive; white-space: pre;" font-size="20px" font-family="'Shantell Sans', cursive"><tspan x="20.23" y="35" dominant-baseline="ideographic">Desperdicio de Tiempo</tspan></text></g></g></g><g id="g-root-tx_oportuni_1q88dida1tg5l-fill" data-item-order="0" transform="translate(50, 218)"><g id="tx_oportuni_1q88dida1tg5l-fill" stroke="none" fill="#484848"><g><text style="font: 20px &quot;Shantell Sans&quot;, cursive; white-space: pre;" font-size="20px" font-family="'Shantell Sans', cursive"><tspan x="15.77" y="35" dominant-baseline="ideographic">Oportunidades Perdidas</tspan></text></g></g></g><g id="g-root-tx_citasolv_ddld2da1th4w-fill" data-item-order="0" transform="translate(134, 278)"><g id="tx_citasolv_ddld2da1th4w-fill" stroke="none" fill="#484848"><g><text style="font: 20px &quot;Shantell Sans&quot;, cursive; white-space: pre;" font-size="20px" font-family="'Shantell Sans', cursive"><tspan x="12.67" y="35" dominant-baseline="ideographic">Citas Olvidadas</tspan></text></g></g></g><g id="g-root-tx_sistemas_v48wh1a1thxj-fill" data-item-order="0" transform="translate(74, 338)"><g id="tx_sistemas_v48wh1a1thxj-fill" stroke="none" fill="#484848"><g><text style="font: 20px &quot;Shantell Sans&quot;, cursive; white-space: pre;" font-size="20px" font-family="'Shantell Sans', cursive"><tspan x="18.39" y="35" dominant-baseline="ideographic">Sistemas Ineficientes</tspan></text></g></g></g><g id="g-root-tx_faltadeo_18fpeuda1tgcm-fill" data-item-order="0" transform="translate(62, 398)"><g id="tx_faltadeo_18fpeuda1tgcm-fill" stroke="none" fill="#484848"><g><text style="font: 20px &quot;Shantell Sans&quot;, cursive; white-space: pre;" font-size="20px" font-family="'Shantell Sans', cursive"><tspan x="21.92" y="35" dominant-baseline="ideographic">Falta de Organización</tspan></text></g></g></g><g id="g-root-sy_-1_cu_18ntkyta1s2rq-stroke" data-item-order="-298692" transform="translate(405, 141.435546875)"><g id="sy_-1_cu_18ntkyta1s2rq-stroke" fill="none" stroke-linecap="round" stroke-linejoin="round" stroke-miterlimit="4" stroke="#ffffff" stroke-width="2"><g><path d="M 19.637299 15.377807C 24.019592 15.377807 28.745911 13.978897 31.756897 11.192505C 32.154419 10.814102 32.531982 10.424301 32.889801 10C 33.23761 10.424301 33.615204 10.814102 34.022583 11.192505C 37.0336 13.990295 41.435791 15.377807 45.808197 15.377807C 50.180603 15.377807 54.582886 13.978897 57.593903 11.192505C 57.991394 10.814102 58.369019 10.424301 58.716797 10C 59.064606 10.424301 59.4422 10.814102 59.849609 11.192505C 62.860596 13.990295 67.252899 15.377807 71.635315 15.377807C 76.017578 15.377807 80.409912 13.978897 83.420898 11.192505C 83.818298 10.814102 84.195984 10.424301 84.543793 10C 84.891602 10.424301 85.269196 10.814102 85.676605 11.192505C 88.687622 13.990295 93.089783 15.377807 97.462219 15.377807C 101.834595 15.377807 106.236816 13.978897 109.247803 11.192505C 109.645294 10.814102 110.022888 10.424301 110.380707 10C 110.728516 10.424301 111.106079 10.814102 111.503601 11.192505C 114.514587 13.990295 118.916809 15.377807 123.289185 15.377807C 127.661621 15.377807 132.063782 13.978897 135.074829 11.192505C 135.47229 10.814102 135.849915 10.424301 136.207703 10C 136.555481 10.424301 136.933105 10.814102 137.330566 11.192505C 140.341614 13.990295 144.743774 15.377807 149.116211 15.377807C 153.488586 15.377807 157.890808 13.978897 160.901794 11.192505C 161.299316 10.814102 161.67688 10.424301 162.034668 10C 162.382507 10.424301 162.760132 10.814102 163.157593 11.192505C 166.168579 13.990295 170.570801 15.377807 174.943176 15.377807C 179.315613 15.377807 183.717773 13.978897 186.728821 11.192505C 187.126282 10.814102 187.503906 10.424301 187.861572 10C 188.209473 10.424301 188.587097 10.814102 188.984619 11.192505C 191.995605 13.990295 196.397827 15.377807 200.770203 15.377807C 205.142578 15.377807 209.5448 13.978897 212.555786 11.192505C 212.953308 10.814102 213.330872 10.424301 213.688721 10C 214.036499 10.424301 214.414124 10.814102 214.821472 11.192505C 217.83252 13.990295 222.23468 15.377807 226.607117 15.377807C 230.979492 15.377807 235.381775 13.978897 238.392822 11.192505C 238.790283 10.814102 239.167908 10.424301 239.525574 10C 239.873413 10.424301 240.250977 10.814102 240.658386 11.192505C 243.669373 13.990295 248.349121 15.3862 252.40509 15.3862L 262 28.564392L 262 60.564514L 244 96.564514L 244 144.564697L 226 180.564392L 226 216.564514L 178.287415 306.491211L 166.287415 306.491211L 136 350.564697L 118 320.564514L 106 320.564514L 70 260.564514L 70 228.564514L 46 192.564697L 46 156.564392L 34 137.564697L 34 102.564697L 10 60.564697L 10 28.064392L 19.019714 15.377807L 19.637299 15.377807ZM 82 36.394531L 46 36.394531L 22.000183 60.39444L 10.000183 60.39444M 244 98.564453L 226 74.564453L 202 74.564453M 46 156.564453L 54 168.564453L 70.000031 168.564514M 196.00061 204.564697L 214.000549 204.564667L 226.000549 180.564575M 118 320.564331L 130 308.564453L 142 308.564453"></path></g></g></g><g id="g-root-sy_-1_cu_1_m7cy1xa1tgjz-stroke" data-item-order="-298690" transform="translate(414.04864501953125, 38)"><g id="sy_-1_cu_1_m7cy1xa1tgjz-stroke" fill="none" stroke-linecap="round" stroke-linejoin="round" stroke-miterlimit="4" stroke="#ffffff" stroke-width="2"><g><path d="M 10.000183 118.821503C 14.765595 118.963989 19.751709 117.416397 22.762695 114.630005C 23.160217 114.251602 23.537781 113.861801 23.895508 113.4375C 24.243286 113.861801 24.621002 114.251602 25.028381 114.630005C 28.039398 117.427795 32.441589 118.815308 36.813995 118.815308C 41.186401 118.815308 45.588684 117.416397 48.599609 114.630005C 48.997101 114.251602 49.374695 113.861801 49.722473 113.4375C 50.070313 113.861801 50.447998 114.251602 50.855408 114.630005C 53.866394 117.427795 58.258698 118.815308 62.640991 118.815308C 67.023376 118.815308 71.415588 117.416397 74.426575 114.630005C 74.824097 114.251602 75.201782 113.861801 75.549591 113.4375C 75.8974 113.861801 76.274994 114.251602 76.682373 114.630005C 79.69339 117.427795 84.095581 118.815308 88.468018 118.815308C 92.840393 118.815308 97.242615 117.416397 100.253601 114.630005C 100.651093 114.251602 101.028687 113.861801 101.386475 113.4375C 101.734314 113.861801 102.111877 114.251602 102.509399 114.630005C 105.520386 117.427795 109.922607 118.815308 114.294983 118.815308C 118.667389 118.815308 123.069702 117.416397 126.080627 114.630005C 126.478088 114.251602 126.855774 113.861801 127.213501 113.4375C 127.561279 113.861801 127.938904 114.251602 128.336365 114.630005C 131.347412 117.427795 135.749573 118.815308 140.122009 118.815308C 144.494385 118.815308 148.896606 117.416397 151.907593 114.630005C 152.305115 114.251602 152.682678 113.861801 153.040466 113.4375C 153.388306 113.861801 153.765869 114.251602 154.163391 114.630005C 157.174377 117.427795 161.576599 118.815308 165.948975 118.815308C 170.321411 118.815308 174.723572 117.416397 177.734619 114.630005C 178.13208 114.251602 178.509827 113.861801 178.867493 113.4375C 179.215271 113.861801 179.592896 114.251602 179.990418 114.630005C 183.001404 117.427795 187.403626 118.815308 191.776001 118.815308C 196.148376 118.815308 200.55072 117.416397 203.561584 114.630005C 203.959106 114.251602 204.336792 113.861801 204.694519 113.4375C 205.042297 113.861801 205.419922 114.251602 205.827393 114.630005C 208.838318 117.427795 213.240601 118.815308 217.612976 118.815308C 221.985413 118.815308 226.387573 117.416397 229.398621 114.630005C 229.796082 114.251602 230.173706 113.861801 230.531372 113.4375C 230.879211 113.861801 231.256897 114.251602 231.664307 114.630005C 234.528992 117.290497 239.125183 118.820297 243.382996 118.820297L 209.000183 74L 197.000183 87L 160.000183 38L 149.000183 38L 127.000183 10L 87.000183 61L 78.999695 52L 43.000183 100L 31.999695 100L 28.000183 95L 10.000183 118.821503ZM 148.99823 38L 132.99823 38M 58.906158 100L 42.997223 100M 196.99823 87L 187.99823 96.5M 86.99823 61L 76.99823 74"></path></g></g></g><g id="g-root-sy_-1_cu_2_dbpxt1a1ti4g-stroke" data-item-order="-298687" transform="translate(14, 141.435546875)"><g id="sy_-1_cu_2_dbpxt1a1ti4g-stroke" fill="none" stroke-linecap="round" stroke-linejoin="round" stroke-miterlimit="4" stroke="#f99539" stroke-width="2"><g><path d="M 682.7422 10C 682.3944 10.4243 682.0167 10.8141 681.6093 11.1925C 678.5983 13.9903 674.206 15.3778 669.8237 15.3778C 665.4413 15.3778 661.0491 13.9789 658.0381 11.1925C 657.6406 10.8141 657.263 10.4243 656.9152 10C 656.5674 10.4243 656.1897 10.8141 655.7823 11.1925C 652.7713 13.9903 648.3691 15.3778 643.9967 15.3778C 639.6243 15.3778 635.222 13.9789 632.2111 11.1925C 631.8136 10.8141 631.436 10.4243 631.0782 10C 630.7304 10.4243 630.3528 10.8141 629.9553 11.1925C 626.9443 13.9903 622.5421 15.3778 618.1697 15.3778C 613.7973 15.3778 609.395 13.9789 606.384 11.1925C 605.9865 10.8141 605.609 10.4243 605.2512 10C 604.9034 10.4243 604.5258 10.8141 604.1283 11.1925C 601.1173 13.9903 596.7151 15.3778 592.3427 15.3778C 587.9702 15.3778 583.5681 13.9789 580.5571 11.1925C 580.1596 10.8141 579.7819 10.4243 579.4242 10C 579.0764 10.4243 578.6988 10.8141 578.3013 11.1925C 575.2903 13.9903 570.8881 15.3778 566.5157 15.3778C 562.1433 15.3778 557.741 13.9789 554.73 11.1925C 554.3326 10.8141 553.955 10.4243 553.5972 10C 553.2494 10.4243 552.8718 10.8141 552.4743 11.1925C 549.4633 13.9903 545.0611 15.3778 540.6887 15.3778C 536.3163 15.3778 531.9141 13.9789 528.9031 11.1925C 528.5056 10.8141 528.1279 10.4243 527.7702 10C 527.4224 10.4243 527.0448 10.8141 526.6373 11.1925C 523.6263 13.9903 519.2241 15.3778 514.8517 15.3778C 510.4793 15.3778 506.0771 13.9789 503.0661 11.1925C 502.6686 10.8141 502.291 10.4243 501.9333 10C 501.5855 10.4243 501.2078 10.8141 500.8004 11.1925C 497.7894 13.9903 493.0033 15.3862 488.6309 15.3862C 484.2486 15.3862 479.7255 13.9789 476.7145 11.1925C 476.317 10.8141 475.9395 10.4243 475.5817 10C 475.2339 10.4243 474.8563 10.8141 474.4489 11.1925C 471.4379 13.9903 467.0356 15.3778 462.6632 15.3778C 458.2908 15.3778 453.8886 13.9789 450.8776 11.1925C 450.4801 10.8141 450.1025 10.4243 449.7547 10C 449.4069 10.4243 449.0293 10.8141 448.6219 11.1925C 445.6109 13.9903 441.2186 15.3778 436.8362 15.3778C 432.4539 15.3778 428.0616 13.9789 425.0506 11.1925C 424.6531 10.8141 424.2755 10.4243 423.9277 10C 423.5799 10.4243 423.2023 10.8141 422.7948 11.1925C 419.7838 13.9903 415.3816 15.3778 411.0092 15.3778C 406.6368 15.3778 402.2346 13.9789 399.2236 11.1925C 398.8261 10.8141 398.4485 10.4243 398.0908 10C 397.743 10.4243 397.3653 10.8141 396.9678 11.1925C 393.9568 13.9903 389.5547 15.3778 385.1823 15.3778C 380.8098 15.3778 376.4076 13.9789 373.3966 11.1925C 372.9991 10.8141 372.6215 10.4243 372.2638 10C 371.916 10.4243 371.5384 10.8141 371.1409 11.1925C 368.1299 13.9903 363.7276 15.3778 359.3552 15.3778C 354.9828 15.3778 350.5806 13.9789 347.5696 11.1925C 347.1721 10.8141 346.7945 10.4243 346.4368 10C 346.089 10.4243 345.7113 10.8141 345.3138 11.1925C 342.3028 13.9903 337.9006 15.3778 333.5282 15.3778C 329.1558 15.3778 324.7536 13.9789 321.7426 11.1925C 321.3451 10.8141 320.9675 10.4243 320.6097 10C 320.2619 10.4243 319.8843 10.8141 319.4868 11.1925C 316.4758 13.9903 312.0736 15.3778 307.7012 15.3778C 303.3288 15.3778 298.9266 13.9789 295.9156 11.1925C 295.5181 10.8141 295.1405 10.4243 294.7827 10C 294.4349 10.4243 294.0573 10.8141 293.6499 11.1925C 290.6389 13.9903 286.2367 15.3778 281.8643 15.3778C 277.4919 15.3778 273.0896 13.9789 270.0786 11.1925C 269.6812 10.8141 269.3035 10.4243 268.9458 10C 268.598 10.4243 268.2204 10.8141 267.813 11.1925C 264.802 13.9903 260.0157 15.3862 255.6433 15.3862C 251.2609 15.3862 246.7376 13.9789 243.7266 11.1925C 243.3291 10.8141 242.9515 10.4243 242.5937 10C 242.2459 10.4243 241.8683 10.8141 241.4609 11.1925C 238.4499 13.9903 234.0477 15.3778 229.6752 15.3778C 225.3028 15.3778 220.9006 13.9789 217.8896 11.1925C 217.4921 10.8141 217.1145 10.4243 216.7667 10C 216.4189 10.4243 216.0413 10.8141 215.6339 11.1925C 212.6229 13.9903 208.2305 15.3778 203.8482 15.3778C 199.4659 15.3778 195.0736 13.9789 192.0626 11.1925C 191.6651 10.8141 191.2875 10.4243 190.9397 10C 190.5919 10.4243 190.2143 10.8141 189.8068 11.1925C 186.7958 13.9903 182.3936 15.3778 178.0212 15.3778C 173.6488 15.3778 169.2466 13.9789 166.2356 11.1925C 165.8381 10.8141 165.4605 10.4243 165.1028 10C 164.755 10.4243 164.3773 10.8141 163.9798 11.1925C 160.9688 13.9903 156.5666 15.3778 152.1942 15.3778C 147.8218 15.3778 143.4196 13.9789 140.4086 11.1925C 140.0111 10.8141 139.6335 10.4243 139.2758 10C 138.9279 10.4243 138.5503 10.8141 138.1528 11.1925C 135.1419 13.9903 130.7396 15.3778 126.3672 15.3778C 121.9948 15.3778 117.5926 13.9789 114.5816 11.1925C 114.1841 10.8141 113.8065 10.4243 113.4488 10C 113.101 10.4243 112.7233 10.8141 112.3259 11.1925C 109.3149 13.9903 104.9126 15.3778 100.5402 15.3778C 96.1678 15.3778 91.7656 13.9789 88.7546 11.1925C 88.3571 10.8141 87.9795 10.4243 87.6218 10C 87.274 10.4243 86.8963 10.8141 86.4988 11.1925C 83.4878 13.9903 79.0856 15.3778 74.7132 15.3778C 70.3408 15.3778 65.9386 13.9789 62.9276 11.1925C 62.5301 10.8141 62.1525 10.4243 61.7948 10C 61.4469 10.4243 61.0693 10.8141 60.6619 11.1925C 57.6509 13.9903 53.2487 15.3778 48.8763 15.3778M 48.8763 15.3778C 44.4939 15.3778 39.9709 13.9789 36.9599 11.1925C 36.5624 10.8141 36.1848 10.4243 35.827 10C 35.4792 10.4243 35.1016 10.8141 34.6942 11.1925C 31.6832 13.9903 27.281 15.3778 22.9086 15.3778C 18.5361 15.3778 14.1339 13.9789 11.1229 11.1925C 10.7254 10.8141 10.3478 10.4243 10 10M 48.8763 15.3778L 48.8762 15.3862"></path></g></g></g><g id="g-root-sy_-1_line_vwita1tgjl-stroke" data-item-order="-298683" transform="translate(362, 61.99609375)"><g id="sy_-1_line_vwita1tgjl-stroke" fill="none" stroke-linecap="round" stroke-linejoin="round" stroke-miterlimit="4" stroke="#76573a" stroke-width="2" stroke-dasharray="5.0, 7.0"><g><path d="M 10 10.003906L 176 10.003906"></path><path d="M 170 16.503906L 176.5 10.003906L 170 3.503906" stroke-dasharray="none"></path></g></g></g><g id="g-root-sy_1_line_1q6cy91a1th56-stroke" data-item-order="-298677" transform="translate(362, 229.99609375)"><g id="sy_1_line_1q6cy91a1th56-stroke" fill="none" stroke-linecap="round" stroke-linejoin="round" stroke-miterlimit="4" stroke="#76573a" stroke-width="2" stroke-dasharray="5.0, 7.0"><g><path d="M 10 10.003906L 188 10.003906"></path><path d="M 182 16.503906L 188.5 10.003906L 182 3.503906" stroke-dasharray="none"></path></g></g></g><g id="g-root-sy_2_line_1q6cy91a1th57-stroke" data-item-order="-298671" transform="translate(362, 290.0001220703125)"><g id="sy_2_line_1q6cy91a1th57-stroke" fill="none" stroke-linecap="round" stroke-linejoin="round" stroke-miterlimit="4" stroke="#76573a" stroke-width="2" stroke-dasharray="5.0, 7.0"><g><path d="M 10 9.999878L 150 9.999878"></path><path d="M 144 16.499878L 150.5 9.999878L 144 3.499878" stroke-dasharray="none"></path></g></g></g><g id="g-root-sy_3_line_1lqjg4la1thxg-stroke" data-item-order="-298665" transform="translate(362, 349.99609375)"><g id="sy_3_line_1lqjg4la1thxg-stroke" fill="none" stroke-linecap="round" stroke-linejoin="round" stroke-miterlimit="4" stroke="#76573a" stroke-width="2" stroke-dasharray="5.0, 7.0"><g><path d="M 10 10.003906L 212 10.003906"></path><path d="M 206 16.503906L 212.5 10.003906L 206 3.503906" stroke-dasharray="none"></path></g></g></g><g id="g-root-sy_4_line_1cuwfvpa1tiq5-stroke" data-item-order="-298659" transform="translate(362, 409.99609375)"><g id="sy_4_line_1cuwfvpa1tiq5-stroke" fill="none" stroke-linecap="round" stroke-linejoin="round" stroke-miterlimit="4" stroke="#76573a" stroke-width="2" stroke-dasharray="5.0, 7.0"><g><path d="M 10 10.003906L 176 10.003906"></path><path d="M 170 16.503906L 176.5 10.003906L 170 3.503906" stroke-dasharray="none"></path></g></g></g><g id="g-root-ic_2_1d1rqzpa1gu88-stroke" data-item-order="-2304" transform="translate(302, 38)"></g><g id="g-root-ic_door_1d2e4x1a20hdy-stroke" data-item-order="-2304" transform="translate(302, 206)"></g><g id="g-root-ic_ques_hu1c9xa1z37p-stroke" data-item-order="-2304" transform="translate(302, 266)"></g><g id="g-root-ic_moni_18gyd0la1w9ac-stroke" data-item-order="-2304" transform="translate(302, 326)"></g><g id="g-root-ic_remo_v64bqda1tgxv-stroke" data-item-order="-2304" transform="translate(302, 386)"></g><g id="g-root-tx_desperdi_18gyd0la1tiiq-stroke" data-item-order="0" transform="translate(62, 50)"></g><g id="g-root-tx_oportuni_1q88dida1tg5l-stroke" data-item-order="0" transform="translate(50, 218)"></g><g id="g-root-tx_citasolv_ddld2da1th4w-stroke" data-item-order="0" transform="translate(134, 278)"></g><g id="g-root-tx_sistemas_v48wh1a1thxj-stroke" data-item-order="0" transform="translate(74, 338)"></g><g id="g-root-tx_faltadeo_18fpeuda1tgcm-stroke" data-item-order="0" transform="translate(62, 398)"></g></g></g><path id="wqunmc997uoeg" d="M65.283 12.757a.35.35 0 0 0 .584.157l5.203-5.141-6.183 3.523.396 1.461zm-2.216-11.7a.35.35 0 0 0-.522.305v3.111l3.276-1.868-2.754-1.548zm3.728 2.105l-4.25 2.421v2.445l6.391-3.644-2.141-1.222zm4.708 3.303a.35.35 0 0 0 0-.609l-1.592-.9-7.365 4.199v1.782a.35.35 0 0 0 .523.305l8.435-4.777z M44.542 2.513c0-.433.355-.783.792-.783s.792.35.792.783-.355.783-.792.783-.792-.35-.792-.783zm59.171 0c0-.433.355-.783.792-.783s.792.35.792.783-.355.783-.792.783-.792-.35-.792-.783zm-85.951 7.636h-1.27v-.487c-.276.201-.864.609-1.881.609-1.202 0-2.274-.794-2.137-2.078.118-1.106 1.153-1.584 1.848-1.727l2.17-.345c0-.539-.29-.956-1.064-1.006s-1.21.305-1.571 1.017l-1.124-.605c1.218-2.631 5.029-1.764 5.029.414v4.207zm-1.27-2.86c.006.396-.062 1.112-.819 1.59-.587.37-1.841.299-1.903-.395-.049-.555.461-.791.906-.898l1.816-.297zm72.662 2.86h-1.27v-.487c-.276.201-.864.609-1.881.609-1.202 0-2.274-.794-2.137-2.078.118-1.106 1.153-1.584 1.848-1.727l2.17-.345c0-.539-.29-.956-1.064-1.006s-1.21.305-1.571 1.017l-1.124-.605c1.218-2.631 5.029-1.764 5.029.414v4.207zm-1.27-2.86c.006.396-.062 1.112-.82 1.59-.587.37-1.841.299-1.903-.395-.049-.555.461-.791.906-.898l1.816-.297zM99.096 10.149H97.85v-8.45h1.246v4.895l2.68-2.559h1.738l-2.633 2.535 2.715 3.578h-1.556l-2.077-2.707-.867.844v1.863zm6.053-6.114h-1.255v6.113h1.255V4.035zm-59.2 0h-1.255v6.113h1.255V4.035zm5.584 6.113V1.697h1.255v2.695c.361-.346 1-.485 1.47-.485 1.452 0 2.477 1.082 2.457 2.448v3.792h-1.27v-3.68c0-.408-.214-1.339-1.315-1.339-.968 0-1.342.756-1.342 1.339v3.681h-1.255zm-4.76-4.894V4.039h.621a.45.45 0 0 0 .45-.45v-.855h1.251v1.305h1.309v1.215h-1.309v3.109c0 .293.105.664.648.664.365 0 .531-.035.736-.07v1.137s-.361.113-.857.113c-1.398 0-1.777-1.051-1.777-1.788V5.254h-1.071zM36.528 4.039h-1.394l2.191 6.106h1.125l1.234-3.918 1.238 3.918h1.129l2.188-6.106h-1.383l-1.359 3.93-1.256-3.93h-1.124l-1.242 3.957-1.348-3.957zM26.212 7.141c-.02 1.566 1.187 3.129 3.223 3.129 1.566 0 2.383-.918 2.734-1.719L31.172 8c-.315.399-.801 1.094-1.738 1.094-1.145 0-1.825-.781-1.891-1.52h4.625c.074-.284.148-.995-.03-1.559-.336-1.064-1.221-2.102-2.839-2.102s-3.088 1.152-3.088 3.227zm1.363-.75h3.348c-.055-.43-.566-1.301-1.623-1.301a1.79 1.79 0 0 0-1.725 1.301zm-8.758.75c.038 1.758 1.277 3.133 3.145 3.133 1.074 0 1.723-.477 1.961-.672v.547h1.242V1.703h-1.258v2.888c-.414-.36-1.062-.68-1.93-.68-1.91 0-3.198 1.473-3.16 3.23zm1.309-.08c0 1.119.723 1.978 1.836 1.978a1.88 1.88 0 0 0 1.94-1.904c0-1.371-1.011-1.99-1.972-1.99s-1.805.798-1.805 1.916zm76.683-.028C96.771 5.275 95.532 3.9 93.664 3.9c-1.074 0-1.723.477-1.961.672v-.547h-1.242v8.22h1.258V9.583c.414.36 1.063.68 1.93.68 1.91 0 3.198-1.473 3.16-3.23zm-1.309.08c0-1.119-.723-1.978-1.836-1.978a1.88 1.88 0 0 0-1.94 1.904c0 1.371 1.011 1.99 1.972 1.99S95.5 8.231 95.5 7.113zM106.441 10.173V4.036h1.254v.382c.361-.346 1-.485 1.47-.485 1.452 0 2.477 1.082 2.457 2.448v3.792h-1.27V6.492c0-.408-.214-1.339-1.315-1.339-.969 0-1.342.756-1.342 1.339v3.681h-1.254zm-30.383-.021V1.824h1.084l4.215 5.777V1.824h1.32v8.328h-1.094l-4.207-5.796v5.796h-1.319zM5.24 10.149H4V2.377h1.014l2.664 3.597 2.654-3.592h1.03v7.766h-1.256V4.762L7.678 8.068 5.24 4.742v5.407z" transform="translate(20, 506.00048828125)" fill="#80808088" stroke="none"></path></svg>